# xmcd CD database file
#
# Track frame offsets:
#	150
#	21680
#	40217
#	58702
#	82725
#	102840
#	125495
#	145797
#	167892
#	187485
#
# Disc length: 2819 seconds
#
# Revision: 0
# Processed by: cddbd v1.5.1PL0 Copyright (c) Steve Scherf et al.
# Submitted via: CDex 1.51
#
DISCID=8e0b010a
DTITLE=PERSONZ - APOLLO
DYEAR=1900
DGENRE=Japanese Rock
TTITLE0=ICE
TTITLE1=BELIEVER
TTITLE2=TOGETHER
TTITLE3=SURVIVAL
TTITLE4=WISH
TTITLE5=白い朝
TTITLE6=SAVE ME
TTITLE7=STAR
TTITLE8=BESIDE YOU
TTITLE9=DEAR FRIENDS〜21ST VERSION <ALBUM TAKE>
EXTD=
EXTT0=
EXTT1=
EXTT2=
EXTT3=
EXTT4=
EXTT5=
EXTT6=
EXTT7=
EXTT8=
EXTT9=
PLAYORDER=
